HIERARCHY
ROOT Hips
{
    OFFSET   0.000000   0.000000   0.000000
    CHANNELS 6 Xposition Yposition Zposition Zrotation Xrotation Yrotation
    JOINT Chest
    {
        OFFSET   0.000000   8.007230   0.000000
        CHANNELS 3 Zrotation Xrotation Yrotation
        JOINT Chest2
        {
            OFFSET   0.000000  22.077100   0.000000
            CHANNELS 3 Zrotation Xrotation Yrotation
            JOINT Neck
            {
                OFFSET   0.000000  23.254700   0.000000
                CHANNELS 3 Zrotation Xrotation Yrotation
                JOINT Head
                {
                    OFFSET   0.000010  14.370000   1.956610
                    CHANNELS 3 Zrotation Xrotation Yrotation
                    End Site
                    {
                        OFFSET   0.000000  19.566000   0.000000
                    }
                }
            }
            JOINT LeftCollar
            {
                OFFSET   3.911900  19.017000  -0.467063
                CHANNELS 3 Zrotation Xrotation Yrotation
                JOINT LeftShoulder
                {
                    OFFSET  10.383700   0.000000   0.000000
                    CHANNELS 3 Zrotation Xrotation Yrotation
                    JOINT LeftElbow
                    {
                        OFFSET  26.662100   0.001671   0.000522
                        CHANNELS 3 Zrotation Xrotation Yrotation
                        JOINT LeftWrist
                        {
                            OFFSET  28.869000   0.000037  -0.000114
                            CHANNELS 3 Zrotation Xrotation Yrotation
                            JOINT LeftFinger0
                            {
                                OFFSET   2.044650  -2.323450   3.252850
                                CHANNELS 3 Zrotation Xrotation Yrotation
                                JOINT LeftFinger01
                                {
                                    OFFSET   3.088140   0.000000   0.000000
                                    CHANNELS 3 Zrotation Xrotation Yrotation
                                    JOINT LeftFinger02
                                    {
                                        OFFSET   2.639460   0.000000   0.000000
                                        CHANNELS 3 Zrotation Xrotation Yrotation
                                        End Site
                                        {
                                            OFFSET   2.582190   0.000000   0.000000
                                        }
                                    }
                                }
                            }
                            JOINT LeftFinger1
                            {
                                OFFSET   8.364480   0.000000   3.252850
                                CHANNELS 3 Zrotation Xrotation Yrotation
                                JOINT LeftFinger11
                                {
                                    OFFSET   4.646930   0.000000   0.000000
                                    CHANNELS 3 Zrotation Xrotation Yrotation
                                    JOINT LeftFinger12
                                    {
                                        OFFSET   2.323470   0.000000   0.000000
                                        CHANNELS 3 Zrotation Xrotation Yrotation
                                        End Site
                                        {
                                            OFFSET   2.273050   0.000000   0.000000
                                        }
                                    }
                                }
                            }
                            JOINT LeftFinger2
                            {
                                OFFSET   8.364490   0.000016   1.078090
                                CHANNELS 3 Zrotation Xrotation Yrotation
                                JOINT LeftFinger21
                                {
                                    OFFSET   5.111620   0.000000   0.000000
                                    CHANNELS 3 Zrotation Xrotation Yrotation
                                    JOINT LeftFinger22
                                    {
                                        OFFSET   2.788150   0.000013   0.000000
                                        CHANNELS 3 Zrotation Xrotation Yrotation
                                        End Site
                                        {
                                            OFFSET   2.727660   0.000000   0.000000
                                        }
                                    }
                                }
                            }
                            JOINT LeftFinger3
                            {
                                OFFSET   7.899780   0.000016  -1.078090
                                CHANNELS 3 Zrotation Xrotation Yrotation
                                JOINT LeftFinger31
                                {
                                    OFFSET   4.646930   0.000000   0.000000
                                    CHANNELS 3 Zrotation Xrotation Yrotation
                                    JOINT LeftFinger32
                                    {
                                        OFFSET   2.323470   0.000000   0.000000
                                        CHANNELS 3 Zrotation Xrotation Yrotation
                                        End Site
                                        {
                                            OFFSET   2.273050   0.000000   0.000000
                                        }
                                    }
                                }
                            }
                            JOINT LeftFinger4
                            {
                                OFFSET   7.435080   0.000000  -3.252850
                                CHANNELS 3 Zrotation Xrotation Yrotation
                                JOINT LeftFinger41
                                {
                                    OFFSET   3.717550   0.000000   0.000000
                                    CHANNELS 3 Zrotation Xrotation Yrotation
                                    JOINT LeftFinger42
                                    {
                                        OFFSET   1.858760   0.000000   0.000000
                                        CHANNELS 3 Zrotation Xrotation Yrotation
                                        End Site
                                        {
                                            OFFSET   1.818440   0.000000   0.000000
                                        }
                                    }
                                }
                            }
                        }
                    }
                }
            }
            JOINT RightCollar
            {
                OFFSET  -3.911900  19.017000  -0.467064
                CHANNELS 3 Zrotation Xrotation Yrotation
                JOINT RightShoulder
                {
                    OFFSET -10.383700   0.000000   0.000000
                    CHANNELS 3 Zrotation Xrotation Yrotation
                    JOINT RightElbow
                    {
                        OFFSET -26.662100   0.001633   0.000260
                        CHANNELS 3 Zrotation Xrotation Yrotation
                        JOINT RightWrist
                        {
                            OFFSET -28.869000  -0.000045  -0.000080
                            CHANNELS 3 Zrotation Xrotation Yrotation
                            JOINT RightFinger0
                            {
                                OFFSET  -2.044660  -2.323490   3.252850
                                CHANNELS 3 Zrotation Xrotation Yrotation
                                JOINT RightFinger01
                                {
                                    OFFSET  -3.088140   0.000000   0.000000
                                    CHANNELS 3 Zrotation Xrotation Yrotation
                                    JOINT RightFinger02
                                    {
                                        OFFSET  -2.639450   0.000000   0.000000
                                        CHANNELS 3 Zrotation Xrotation Yrotation
                                        End Site
                                        {
                                            OFFSET  -2.582190   0.000000   0.000000
                                        }
                                    }
                                }
                            }
                            JOINT RightFinger1
                            {
                                OFFSET  -8.364480   0.000000   3.252850
                                CHANNELS 3 Zrotation Xrotation Yrotation
                                JOINT RightFinger11
                                {
                                    OFFSET  -4.646920   0.000000   0.000000
                                    CHANNELS 3 Zrotation Xrotation Yrotation
                                    JOINT RightFinger12
                                    {
                                        OFFSET  -2.323470   0.000000   0.000000
                                        CHANNELS 3 Zrotation Xrotation Yrotation
                                        End Site
                                        {
                                            OFFSET  -2.273050   0.000000   0.000000
                                        }
                                    }
                                }
                            }
                            JOINT RightFinger2
                            {
                                OFFSET  -8.364480   0.000000   1.078090
                                CHANNELS 3 Zrotation Xrotation Yrotation
                                JOINT RightFinger21
                                {
                                    OFFSET  -5.111610   0.000000   0.000000
                                    CHANNELS 3 Zrotation Xrotation Yrotation
                                    JOINT RightFinger22
                                    {
                                        OFFSET  -2.788160   0.000000   0.000000
                                        CHANNELS 3 Zrotation Xrotation Yrotation
                                        End Site
                                        {
                                            OFFSET  -2.727660   0.000000   0.000000
                                        }
                                    }
                                }
                            }
                            JOINT RightFinger3
                            {
                                OFFSET  -7.899780   0.000000  -1.078090
                                CHANNELS 3 Zrotation Xrotation Yrotation
                                JOINT RightFinger31
                                {
                                    OFFSET  -4.646930   0.000000   0.000000
                                    CHANNELS 3 Zrotation Xrotation Yrotation
                                    JOINT RightFinger32
                                    {
                                        OFFSET  -2.323470   0.000000   0.000000
                                        CHANNELS 3 Zrotation Xrotation Yrotation
                                        End Site
                                        {
                                            OFFSET  -2.273050   0.000000   0.000000
                                        }
                                    }
                                }
                            }
                            JOINT RightFinger4
                            {
                                OFFSET  -7.435090   0.000000  -3.252850
                                CHANNELS 3 Zrotation Xrotation Yrotation
                                JOINT RightFinger41
                                {
                                    OFFSET  -3.717550   0.000000   0.000000
                                    CHANNELS 3 Zrotation Xrotation Yrotation
                                    JOINT RightFinger42
                                    {
                                        OFFSET  -1.858760   0.000000   0.000000
                                        CHANNELS 3 Zrotation Xrotation Yrotation
                                        End Site
                                        {
                                            OFFSET  -1.818440   0.000000   0.000000
                                        }
                                    }
                                }
                            }
                        }
                    }
                }
            }
        }
    }
    JOINT LeftHip
    {
        OFFSET   9.782990   0.000000   0.000000
        CHANNELS 3 Zrotation Xrotation Yrotation
        JOINT LeftKnee
        {
            OFFSET  -0.000063 -41.789100   0.001657
            CHANNELS 3 Zrotation Xrotation Yrotation
            JOINT LeftAnkle
            {
                OFFSET   0.000078 -41.133200  -0.000113
                CHANNELS 3 Zrotation Xrotation Yrotation
                JOINT LeftToe
                {
                    OFFSET   0.000000  -6.358970  14.674500
                    CHANNELS 3 Zrotation Xrotation Yrotation
                    End Site
                    {
                        OFFSET   0.000000   0.000000   3.913200
                    }
                }
            }
        }
    }
    JOINT RightHip
    {
        OFFSET  -9.782990   0.000000   0.000000
        CHANNELS 3 Zrotation Xrotation Yrotation
        JOINT RightKnee
        {
            OFFSET   0.000053 -41.789200   0.000277
            CHANNELS 3 Zrotation Xrotation Yrotation
            JOINT RightAnkle
            {
                OFFSET   0.000030 -41.133200  -0.000150
                CHANNELS 3 Zrotation Xrotation Yrotation
                JOINT RightToe
                {
                    OFFSET   0.000000  -6.358960  14.674500
                    CHANNELS 3 Zrotation Xrotation Yrotation
                    End Site
                    {
                        OFFSET   0.000000   0.000000   3.913200
                    }
                }
            }
        }
    }
}
MOTION
Frames: 4
Frame Time:   0.016667
  4.556790  89.514800   1.867070  -2.932280 -19.327400   2.429650  -0.286699  10.614800   3.578820  -1.294980  21.189300   7.408480  -5.997410   0.648263   0.068148  -9.856050   1.271840  11.810100  -0.772503  -0.689539  -1.807850 -45.696200  -7.906780 -66.226800  15.760700 -30.235700 -86.242100  26.443500 -52.382700  15.212200  45.188700  39.274600 -72.733500 -28.107600  -0.002947  -0.001559  -9.053740   0.000076  -0.009313 -35.155000   4.943860  -6.973430 -28.993700   0.014299   0.003391 -20.295600   0.008559   0.005763 -28.861000  -0.005146  -0.011387 -41.868500   0.036955   0.013890 -27.884400   0.017555   0.019928 -29.099200  -0.011518  -0.013919 -42.629700   0.035546   0.012175 -28.391400   0.017078   0.018529 -28.643400  -0.367387   0.659622 -42.941000   0.014843   0.002222 -28.598700   0.008127   0.006025   6.530860  -0.321869   6.034090  72.561900  16.482200  -1.161630  -1.535940  -8.661450  19.441000 -16.623000  -3.757690   3.802560 -35.334000  26.855200  57.611900  33.735800  -0.014541   0.009762  11.863900  -0.007957   0.004506  36.353100   8.565170  11.439600  30.446700   0.005063   0.001986  21.312600   0.003545   0.001731  30.015000   3.337860   5.755080  45.274200   0.005528   0.008169  30.152600   0.003681   0.005946  29.254600   1.043950   1.862940  43.907500   0.035689  -0.001307  29.242400   0.023713  -0.001509  41.695400  -1.585850  -1.779430  62.580000   0.042928  -0.034922  41.678300   0.027671  -0.025243   3.461610  21.103300   4.033830   0.173794   0.002077   1.596910  -1.259910  -2.686440  -1.181480  -0.000000   0.000000   0.000000   1.499260  20.687300  -0.149388  -1.113910   3.762000 -12.976300   2.434080  -5.008940  -2.032160  -0.000000   0.000000   0.000000
  4.587980  89.515100   1.841320  -2.963720 -19.156600   2.360040  -0.267682  10.553500   3.484030  -1.232750  21.069600   7.207410  -5.870640   0.483951   0.049825  -9.646350   0.950903  11.749400  -0.843666  -0.773407  -1.508300 -46.514200  -7.055260 -63.976400  16.700600 -29.762700 -85.370700  21.050900 -51.687800   9.581130  46.233500  40.716400 -73.436700 -29.167400  -0.000860  -0.000427  -9.583650   0.000074  -0.004070 -36.052900   4.400740  -6.024180 -29.669700  -0.005375  -0.004015 -20.768800  -0.002460  -0.002985 -28.903000  -0.659087   1.183820 -43.385600  -0.020397  -0.015412 -28.894800  -0.006260  -0.011728 -29.159300  -0.665866   1.181010 -43.948600  -0.020163  -0.016546 -29.269800  -0.005553  -0.012896 -29.066600  -0.736566   1.269390 -43.532300  -0.020209  -0.014649 -28.992500  -0.006697  -0.013107   6.587500  -0.325943   6.185050  72.453400  16.468000  -1.100500  -1.660500  -8.739940  19.436800 -16.605100  -3.945690   3.780600 -35.386700  26.960700  57.660200  33.738400  -0.013546   0.009207  11.866900  -0.006414   0.004733  36.363000   8.555380  11.422900  30.453000   0.004998   0.002045  21.317100   0.003500   0.001779  30.029200   3.329660   5.737760  45.294200   0.005456   0.008246  30.165900   0.003635   0.005995  29.266600   1.036180   1.848170  43.925100   0.017844  -0.001307  29.254100   0.011856  -0.001504  41.713500  -1.591480  -1.784890  62.607400   0.020834  -0.014534  41.696500   0.013454  -0.010660   3.450800  20.897100   4.038470   0.166652   0.067729   1.581180  -1.243700  -2.720250  -1.100920  -0.000000   0.000000  -0.000000   1.467170  20.492500  -0.113145  -1.099400   3.747360 -12.951200   2.437310  -4.965500  -2.012010  -0.000000   0.000000  -0.000000
  4.613180  89.515500   1.809490  -3.000150 -18.967000   2.275220  -0.252370  10.489700   3.382800  -1.176720  20.944700   6.993900  -5.718070   0.319740   0.032000  -9.394960   0.629272  11.723800  -0.954113  -0.908304  -1.189720 -47.527900  -6.265830 -61.504000  17.606500 -28.977400 -84.442500  16.007300 -50.611600   4.418150  46.569700  41.791700 -73.408600 -30.000200  -0.000211  -0.000067 -10.000100   0.000073  -0.002060 -36.501100   3.585210  -4.912510 -29.947700  -0.025902  -0.016233 -20.963400  -0.012990  -0.016991 -28.879000  -1.441510   2.611900 -43.878100  -0.079784  -0.063278 -29.222800  -0.027565  -0.061964 -29.117600  -1.446270   2.610050 -44.432400  -0.077835  -0.062244 -29.592000  -0.026304  -0.060957 -29.139500  -1.448150   2.516040 -43.668000  -0.058258  -0.042799 -29.082900  -0.020965  -0.043363   6.659200  -0.350332   6.352700  72.336000  16.442700  -1.041950  -1.775000  -8.792940  19.422400 -16.592900  -4.048950   3.768640 -35.410500  27.053900  57.713000  33.745600  -0.010777   0.007263  11.872800  -0.003885   0.004798  36.373300   8.548040  11.409300  30.459900   0.004931   0.002101  21.322000   0.003453   0.001824  30.041600   3.323050   5.723610  45.311800   0.005383   0.008318  30.177600   0.003586   0.006043  29.277300   1.029750   1.835900  43.940800   0.000000  -0.001307  29.264600   0.000000  -0.001496  41.729600  -1.596530  -1.789230  62.631900  -0.001317   0.005884  41.712800  -0.000802   0.003923   3.439420  20.672100   4.050500   0.161058   0.133382   1.572900  -1.228470  -2.754050  -1.015700   0.000000   0.000000   0.000000   1.431300  20.270300  -0.077332  -1.079240   3.739320 -12.910800   2.440370  -4.921350  -1.990140  -0.000000   0.000000   0.000000
  4.633220  89.515800   1.773330  -3.040550 -18.760300   2.176580  -0.244209  10.431500   3.262300  -1.128710  20.831000   6.742300  -5.551720   0.149773   0.014502  -9.121800   0.294405  11.750000  -1.058110  -1.151740  -0.707726 -48.890300  -5.515830 -58.789500  18.356500 -27.705400 -83.680900  11.746500 -49.203100   0.191699  47.074500  42.558900 -72.843700 -30.458700   0.000891   0.000570 -10.229400   0.000074  -0.002043 -36.416000   2.708750  -3.744580 -29.810900  -0.044827  -0.026652 -20.867600  -0.022661  -0.028735 -28.841200  -2.316780   4.205630 -43.266500  -0.135135  -0.108229 -28.815400  -0.046934  -0.104626 -28.942000  -2.316100   4.205330 -43.782800  -0.124362  -0.101431 -29.159300  -0.041167  -0.097834 -28.680900  -2.306810   4.131320 -43.072300  -0.092342  -0.071026 -28.686100  -0.032547  -0.070534   6.755950  -0.413727   6.555940  72.189500  16.425000  -0.975518  -1.860730  -8.817390  19.388800 -16.589900  -4.059880   3.774280 -35.411800  27.073200  57.721500  33.760100  -0.004772   0.002261  11.880300  -0.001566   0.002522  36.394600   8.531970  11.380000  30.475000   0.004865   0.002163  21.332600   0.003409   0.001859  30.060300   3.309990   5.697300  45.338400   0.005310   0.008381  30.195400   0.003538   0.006087  29.292300   1.014670   1.807960  43.962800   0.000000  -0.001303  29.279300   0.000000  -0.001485  41.758100  -1.606080  -1.795330  62.675100  -0.001375   0.005914  41.741500  -0.000841   0.003919   3.434320  20.498600   4.062360   0.147681   0.067126   1.573180  -1.214640  -2.725170  -0.925575   0.000000   0.000000  -0.000000   1.395400  20.023900  -0.056826  -1.056910   3.736350 -12.847700   2.443780  -4.878030  -1.962560   0.000000   0.000000  -0.000000
